<svg id="Layer_1" data-name="Layer 1" xmlns="http://www.w3.org/2000/svg" viewBox="0 0 24 24"><defs><style>.cls-1{fill:none;}.cls-2{fill:#ef7742;}</style></defs><title>baseline-thumb_down_alt-24px</title><path class="cls-1" d="M24,24H0V0H24Z"/><path class="cls-2" d="M24,2.2H21.6a1.2,1.2,0,0,0-1.2,1.2V14.2a1.2,1.2,0,0,0,1.2,1.2H24ZM.2,10.74a2.38,2.38,0,0,0-.2,1V13a2.41,2.41,0,0,0,2.4,2.4H9L7.9,21a1.2,1.2,0,0,0,.1.79A5.76,5.76,0,0,0,9,23.24l.55.56,7.69-7.69A2.41,2.41,0,0,0,18,14.4V5A2.81,2.81,0,0,0,15.19,2.2H5.47A2.4,2.4,0,0,0,3.41,3.36Z"/></svg>