<svg id="Layer_1" data-name="Layer 1" xmlns="http://www.w3.org/2000/svg" viewBox="0 0 24 24"><defs><style>.cls-1{fill:none;}.cls-2{fill:#439f49;}</style></defs><title>baseline-thumb_up_alt-24px</title><path class="cls-1" d="M24,24H0V0H24Z"/><path class="cls-2" d="M0,21.8H2.4a1.2,1.2,0,0,0,1.2-1.2V9.8A1.2,1.2,0,0,0,2.4,8.6H0Zm23.8-8.54a2.38,2.38,0,0,0,.2-1V11a2.41,2.41,0,0,0-2.4-2.4H15L16.1,3a1.2,1.2,0,0,0-.1-.79A5.76,5.76,0,0,0,15,.76L14.4.2,6.71,7.89A2.41,2.41,0,0,0,6,9.6V19a2.81,2.81,0,0,0,2.81,2.8h9.73a2.42,2.42,0,0,0,2.06-1.16Z"/></svg>