<svg id="Capa_1" data-name="Capa 1" xmlns="http://www.w3.org/2000/svg" viewBox="0 0 469.92 473.93"><defs><style>.cls-1{fill:#449f48;}</style></defs><title>share</title><path class="cls-1" d="M385.51,301.21c-27.44,0-51.64,13.07-67.45,33.09l-146.66-75A85.8,85.8,0,0,0,174.7,237a85.09,85.09,0,0,0-3.93-24.22l146-74.66a86,86,0,1,0-17.58-51.75,85.42,85.42,0,0,0,3.32,22.41l-146.64,75c-15.83-20-40.08-33.15-67.56-33.15a86.36,86.36,0,1,0,68.83,138.05L303.11,363.3a85.3,85.3,0,0,0-3.95,24.29,86.36,86.36,0,1,0,86.35-86.37Z" transform="translate(-2.01)"/></svg>